<?xml version="1.0" encoding="UTF-8"?>
<svg xmlns="http://www.w3.org/2000/svg" xmlns:xlink="http://www.w3.org/1999/xlink" width="2400" height="1680" viewBox="0 0 2400 1680">

<path fill-rule="nonzero" fill="rgb(99.609375%, 99.609375%, 99.609375%)" fill-opacity="1" d="M 934.003906 1104.636719 C 936.773438 1102.292969 943.285156 1100.585938 945.625 1103.355469 C 947.96875 1106.128906 945.253906 1112.328125 942.480469 1114.667969 C 942.179688 1114.921875 941.773438 1115.257812 941.265625 1115.671875 C 940.21875 1116.523438 940.269531 1116.5 940.046875 1116.675781 C 922.828125 1130.105469 901.800781 1135.285156 881.714844 1132.800781 C 861.632812 1130.320312 842.496094 1120.175781 829.066406 1102.960938 C 825.84375 1099.140625 823.152344 1095.152344 820.933594 1091.042969 C 811.132812 1072.929688 803.429688 1068.226562 792.40625 1071.058594 C 790.117188 1071.769531 787.789062 1072.382812 785.429688 1072.886719 C 764.085938 1077.453125 742.898438 1072.929688 725.902344 1061.921875 C 708.921875 1050.925781 696.136719 1033.460938 691.574219 1012.136719 C 687.007812 990.789062 691.53125 969.605469 702.535156 952.609375 C 708.039062 944.109375 715.160156 936.660156 723.578125 930.769531 C 730.867188 926.007812 736.503906 919.03125 730.386719 906.089844 C 725.890625 898.070312 722.855469 889.371094 721.359375 880.410156 C 718.027344 860.464844 722.3125 839.234375 735.007812 821.441406 C 741.097656 812.910156 748.761719 805.761719 757.488281 800.316406 C 766.222656 794.867188 776.03125 791.121094 786.398438 789.398438 C 789.976562 788.808594 797.746094 789.894531 798.339844 793.472656 C 798.929688 797.046875 792.117188 801.761719 788.539062 802.355469 C 779.921875 803.785156 771.757812 806.90625 764.476562 811.449219 C 757.1875 815.996094 750.785156 821.972656 745.691406 829.101562 L 745.6875 829.109375 C 735.132812 843.902344 731.574219 861.59375 734.355469 878.238281 C 737.136719 894.886719 746.261719 910.464844 761.070312 921.035156 L 761.078125 921.039062 C 765.777344 924.394531 770.886719 927.101562 776.269531 929.117188 C 781.632812 931.121094 787.265625 932.429688 793.027344 932.988281 C 796.640625 933.34375 801.925781 937.003906 801.570312 940.613281 C 801.214844 944.226562 795.355469 946.425781 791.742188 946.066406 C 784.84375 945.402344 778.082031 943.832031 771.628906 941.417969 C 749.527344 933.148438 749.003906 929.4375 729.539062 942.675781 C 722.992188 947.125 717.78125 953.203125 713.535156 959.761719 C 704.375 973.90625 700.613281 991.558594 704.421875 1009.355469 C 708.234375 1027.175781 718.898438 1041.753906 733.058594 1050.921875 C 747.203125 1060.082031 764.851562 1063.84375 782.652344 1060.035156 C 788.308594 1058.824219 793.757812 1056.878906 798.871094 1054.265625 C 807.4375 1050.5625 811.238281 1044.769531 816.421875 1029.230469 C 821.175781 1014.976562 830.042969 1001.914062 842.78125 991.976562 C 845.652344 989.738281 852.289062 988.09375 854.527344 990.964844 C 856.765625 993.835938 853.757812 1000.132812 850.886719 1002.371094 C 836.539062 1013.5625 828.085938 1029.507812 826.015625 1046.242188 C 823.949219 1062.980469 828.265625 1080.503906 839.457031 1094.855469 C 850.648438 1109.199219 866.597656 1117.65625 883.332031 1119.722656 C 900.066406 1121.789062 917.59375 1117.476562 931.941406 1106.28125 C 932.925781 1105.515625 932.691406 1105.722656 932.988281 1105.480469 C 933.230469 1105.285156 933.566406 1105.003906 934.003906 1104.636719 "/>
<path fill-rule="nonzero" fill="rgb(99.609375%, 99.609375%, 99.609375%)" fill-opacity="1" d="M 1410.710938 961.625 C 1409.148438 958.351562 1403.921875 954.113281 1400.640625 955.675781 C 1397.371094 957.234375 1397.289062 964.003906 1398.851562 967.277344 C 1399.019531 967.632812 1399.25 968.105469 1399.539062 968.691406 C 1400.148438 969.898438 1400.109375 969.855469 1400.238281 970.109375 C 1410.398438 989.433594 1427.429688 1002.816406 1446.761719 1008.824219 C 1466.078125 1014.835938 1487.699219 1013.472656 1507.03125 1003.3125 C 1511.53125 1001.160156 1515.628906 998.632812 1519.339844 995.800781 C 1535.738281 983.332031 1544.691406 982.21875 1553.570312 989.339844 C 1555.359375 990.929688 1557.230469 992.445312 1559.171875 993.878906 C 1576.75 1006.828125 1597.910156 1011.429688 1617.929688 1008.402344 C 1637.941406 1005.375 1656.78125 994.722656 1669.71875 977.167969 C 1682.671875 959.597656 1687.269531 938.429688 1684.238281 918.410156 C 1682.730469 908.398438 1679.308594 898.679688 1674.058594 889.84375 C 1669.378906 882.5 1667.121094 873.824219 1678.019531 864.550781 C 1685.421875 859.09375 1691.769531 852.414062 1696.820312 844.867188 C 1708.070312 828.0625 1712.910156 806.949219 1708.671875 785.511719 C 1706.628906 775.226562 1702.589844 765.554688 1696.878906 757 C 1691.171875 748.4375 1683.769531 740.984375 1675.03125 735.144531 C 1672.019531 733.132812 1664.488281 730.925781 1662.480469 733.941406 C 1660.46875 736.957031 1664.730469 744.058594 1667.75 746.070312 C 1675.011719 750.921875 1681.171875 757.128906 1685.929688 764.269531 C 1690.699219 771.414062 1694.078125 779.492188 1695.78125 788.089844 L 1695.78125 788.097656 C 1699.308594 805.925781 1695.261719 823.511719 1685.871094 837.535156 C 1676.488281 851.558594 1661.75 861.996094 1643.898438 865.53125 L 1643.898438 865.535156 C 1638.238281 866.65625 1632.460938 867.019531 1626.730469 866.636719 C 1621.019531 866.257812 1615.339844 865.128906 1609.859375 863.261719 C 1606.421875 862.097656 1600.101562 863.257812 1598.941406 866.695312 C 1597.769531 870.136719 1602.210938 874.550781 1605.648438 875.714844 C 1612.210938 877.949219 1619.019531 879.300781 1625.890625 879.757812 C 1649.441406 881.324219 1651.441406 878.15625 1663.730469 898.238281 C 1667.859375 904.988281 1670.109375 912.675781 1671.28125 920.398438 C 1673.800781 937.0625 1669.960938 954.691406 1659.148438 969.347656 C 1648.339844 984.011719 1632.621094 992.90625 1615.941406 995.433594 C 1599.28125 997.953125 1581.648438 994.113281 1567 983.3125 C 1562.339844 979.878906 1558.179688 975.863281 1554.589844 971.375 C 1548.308594 964.472656 1547.238281 957.628906 1548.910156 941.335938 C 1550.449219 926.382812 1547.75 910.828125 1540.230469 896.53125 C 1538.539062 893.308594 1533.171875 889.078125 1529.941406 890.769531 C 1526.71875 892.464844 1526.871094 899.441406 1528.558594 902.660156 C 1537.03125 918.769531 1538.171875 936.78125 1533.160156 952.886719 C 1528.148438 968.988281 1517 983.179688 1500.890625 991.648438 C 1484.789062 1000.113281 1466.769531 1001.25 1450.671875 996.242188 C 1434.570312 991.234375 1420.378906 980.085938 1411.910156 963.976562 C 1411.328125 962.871094 1411.460938 963.15625 1411.28125 962.8125 C 1411.148438 962.535156 1410.960938 962.140625 1410.710938 961.625 "/>
<path fill-rule="evenodd" fill="rgb(99.609375%, 99.609375%, 99.609375%)" fill-opacity="1" d="M 1082.101562 1210.664062 C 1081.679688 1215.738281 1080.828125 1215.035156 1084 1219.105469 C 1085.699219 1221.292969 1100.671875 1237.414062 1104.128906 1235.621094 C 1107.28125 1233.992188 1102.269531 1230.40625 1100.988281 1229.152344 C 1087.648438 1216.085938 1088.988281 1210.664062 1082.101562 1210.664062 Z M 1116.300781 1222.59375 C 1127.058594 1222.59375 1117.210938 1208.574219 1117.070312 1208.300781 C 1113.359375 1201.011719 1110.738281 1189.644531 1095.621094 1193.167969 C 1095.621094 1198.046875 1095.519531 1200.269531 1097.238281 1203.484375 C 1098.410156 1205.675781 1100.550781 1209.167969 1102.21875 1211.222656 C 1105.179688 1214.84375 1110.648438 1222.59375 1116.300781 1222.59375 Z M 1148.910156 1197.144531 L 1148.910156 1192.371094 C 1148.910156 1187.300781 1141.898438 1178.644531 1138.328125 1177.460938 C 1131.960938 1175.355469 1123.460938 1179.433594 1123.460938 1186.011719 C 1123.460938 1193.4375 1134.519531 1220.480469 1143.390625 1208.335938 C 1144.851562 1206.324219 1148.910156 1200.296875 1148.910156 1197.144531 Z M 1165.609375 1181.238281 C 1168.269531 1181.238281 1171.640625 1181.105469 1172.929688 1176.628906 C 1173.519531 1174.574219 1166.980469 1158.96875 1163.21875 1158.96875 C 1160.5 1158.96875 1154.46875 1158.160156 1154.46875 1166.128906 C 1154.46875 1172.144531 1159.769531 1181.238281 1165.609375 1181.238281 Z M 1190.261719 1170.898438 C 1194.53125 1170.898438 1196.089844 1169.828125 1200.078125 1164 C 1204.941406 1156.914062 1197.96875 1152.164062 1193.769531 1145.121094 C 1189.601562 1138.148438 1190.679688 1136.699219 1184.699219 1136.699219 C 1179.878906 1136.699219 1177.539062 1142.679688 1177.539062 1148.632812 C 1177.539062 1153.574219 1182.53125 1170.898438 1190.261719 1170.898438 Z M 1211.738281 1143.0625 C 1215.179688 1143.0625 1219.691406 1140.304688 1219.691406 1134.316406 C 1219.691406 1132.277344 1217.570312 1131.015625 1216.300781 1129.746094 L 1209.121094 1120.230469 C 1204.371094 1111.699219 1199.011719 1117.273438 1199.011719 1121.589844 C 1199.011719 1126.949219 1200.648438 1131.058594 1203.011719 1135.089844 C 1205.511719 1139.363281 1207.328125 1143.0625 1211.738281 1143.0625 Z M 1230.820312 1124.773438 C 1234.070312 1124.015625 1234.988281 1122.769531 1236.578125 1120.1875 C 1240.421875 1113.921875 1240.640625 1111.984375 1236.589844 1105.488281 C 1230.03125 1094.976562 1220.480469 1106.535156 1220.480469 1112.84375 C 1220.480469 1115.585938 1228.730469 1123.371094 1230.820312 1124.773438 Z M 1032 1122.386719 C 1036.398438 1122.386719 1044.160156 1115.679688 1045.488281 1112.71875 C 1046.800781 1109.78125 1045.011719 1107.375 1043.308594 1104.714844 C 1039.691406 1099.050781 1031.339844 1089.019531 1024.070312 1089.027344 C 1022.640625 1089.03125 1015.320312 1090.371094 1014.089844 1090.960938 C 1011.558594 1092.171875 1009.730469 1095.121094 1009.730469 1098.527344 C 1009.730469 1098.925781 1024.410156 1122.386719 1032 1122.386719 Z M 1078.128906 1099.324219 C 1078.128906 1093.003906 1070.679688 1082.308594 1067.171875 1076.875 C 1063.039062 1070.476562 1056.121094 1070.398438 1051.898438 1077.078125 C 1047.550781 1083.984375 1047.46875 1086.992188 1052.820312 1095.195312 C 1055.910156 1099.925781 1059.980469 1108.558594 1069.089844 1105.457031 C 1071.660156 1104.582031 1078.128906 1101.605469 1078.128906 1099.324219 Z M 1098.011719 1090.574219 C 1102.941406 1090.574219 1109.941406 1087.105469 1109.941406 1085.007812 C 1109.941406 1078.519531 1103.441406 1067.605469 1100.191406 1063.738281 C 1097.539062 1060.585938 1094.539062 1059.253906 1089.378906 1058.5625 C 1080.390625 1057.351562 1080.511719 1061.5625 1080.511719 1067.511719 C 1080.511719 1074.546875 1087.261719 1090.574219 1098.011719 1090.574219 Z M 1127.429688 1085.800781 C 1133.53125 1085.800781 1143.339844 1080.230469 1143.339844 1073.871094 C 1143.339844 1053.566406 1116.410156 1034.160156 1120.398438 1066.585938 C 1120.769531 1069.523438 1121.601562 1073.894531 1122.328125 1077.386719 C 1123.011719 1080.660156 1124.121094 1085.800781 1127.429688 1085.800781 Z M 1164.808594 1070.691406 C 1167.230469 1070.691406 1175.148438 1068.128906 1175.148438 1061.148438 C 1175.148438 1048.808594 1169.039062 1021.722656 1156.820312 1038.84375 C 1148.480469 1050.539062 1153.828125 1070.691406 1164.808594 1070.691406 Z M 1193.441406 1051.605469 C 1193.441406 1035.632812 1182.191406 1031.257812 1184.480469 1039.714844 C 1189.171875 1057.070312 1187.089844 1053.085938 1193.441406 1051.605469 Z M 1291.269531 1057.171875 C 1291.269531 1076.261719 1283.269531 1093.410156 1272.75 1102.28125 C 1268.21875 1106.101562 1259.628906 1109.882812 1255.128906 1116.46875 C 1252.46875 1120.351562 1252.171875 1123.40625 1250.050781 1127.304688 C 1248.289062 1130.566406 1244.820312 1133.425781 1242.160156 1136.105469 L 1233.800781 1143.65625 C 1230.480469 1147.441406 1230.539062 1148.65625 1225.800781 1151.558594 C 1218.660156 1155.917969 1217 1162.144531 1211.738281 1170.109375 C 1203.199219 1183.039062 1196.230469 1186.496094 1183.878906 1189.96875 C 1179.640625 1191.160156 1176.511719 1193.433594 1172.511719 1195.296875 C 1167.601562 1197.589844 1165.441406 1196.683594 1162.539062 1201.238281 C 1153.261719 1215.832031 1158.898438 1215.429688 1139.878906 1226.292969 C 1123.191406 1235.820312 1133.78125 1257.738281 1143.921875 1268.140625 C 1163.929688 1288.660156 1153.851562 1311.429688 1175.730469 1332.5625 C 1198.601562 1354.65625 1231.128906 1333.203125 1245.789062 1311.523438 C 1249.421875 1306.15625 1252.46875 1301.054688 1255.730469 1295.222656 C 1262.519531 1283.089844 1265.101562 1275.539062 1273.621094 1261.414062 C 1283.339844 1245.292969 1294.761719 1231.503906 1306.980469 1217.628906 C 1309.148438 1215.164062 1311.089844 1213.851562 1313.199219 1211.125 C 1317.808594 1205.144531 1329.601562 1193.996094 1337.390625 1183.625 C 1339.390625 1180.964844 1341.089844 1178.472656 1342.960938 1175.671875 C 1349.78125 1165.464844 1355.058594 1152.769531 1358.699219 1139.714844 C 1371.929688 1092.28125 1365.109375 1056.769531 1357.378906 1010.140625 C 1352.109375 978.367188 1344.730469 944.488281 1318.640625 927.203125 C 1308.730469 920.636719 1297.871094 923.171875 1287.808594 928.058594 C 1278.039062 932.804688 1270.089844 936.472656 1260.789062 941.597656 C 1245.398438 950.085938 1240.769531 967.695312 1249.101562 980.039062 C 1253.121094 985.988281 1258.839844 993.441406 1264.03125 998.515625 C 1266.070312 1000.511719 1266.390625 1001.101562 1268.089844 1003.207031 C 1280.53125 1018.667969 1291.269531 1035.3125 1291.269531 1057.171875 Z M 1483.730469 667.46875 C 1474.148438 667.46875 1478.019531 651.511719 1478.191406 646.03125 C 1479.441406 604.019531 1471.480469 570.851562 1452.070312 538.480469 C 1445.851562 528.101562 1439.421875 518.011719 1431.429688 509.019531 C 1420.890625 497.171875 1409.398438 487.210938 1395.191406 480.050781 C 1388.53125 476.691406 1381.941406 474.660156 1375.300781 471.308594 C 1351.398438 459.230469 1280.578125 448.019531 1250.660156 445.628906 C 1248.359375 445.441406 1245.898438 445.730469 1243.589844 445.539062 C 1200.320312 442.078125 1165.601562 441.238281 1122.351562 455.621094 L 1091.191406 467.390625 C 1081.179688 471.570312 1071.410156 476.578125 1062.210938 481.359375 C 1044.210938 490.71875 1027.71875 504.339844 1013.511719 518.550781 C 1009.738281 522.320312 1006.488281 525.5 1002.75 529.28125 C 992.03125 540.109375 982.785156 552.710938 974.886719 565.828125 C 967.367188 578.308594 958.21875 595.53125 954.144531 609.5 C 952.472656 615.238281 951.304688 620.539062 949.574219 626.410156 C 943.609375 646.601562 934.617188 669.269531 925.15625 687.882812 C 923.78125 690.589844 923.265625 692.289062 921.984375 695.050781 C 917.382812 704.980469 912.433594 714.171875 908.378906 724.390625 L 899.691406 748.308594 C 896.351562 759.621094 892.957031 771.113281 894.398438 784.394531 C 895.253906 792.253906 901.488281 811.425781 911.113281 811.425781 C 914.03125 811.425781 914.957031 810.191406 916.679688 809.039062 C 916.074219 801.753906 904.847656 770.066406 916.679688 770.066406 C 925.6875 770.066406 924.382812 783.019531 926.214844 790.753906 C 931.410156 812.703125 932.515625 816.589844 940.882812 837.324219 C 949.960938 859.820312 948.664062 872.636719 934.511719 892.085938 C 927.835938 901.257812 919.859375 910.578125 919.859375 922.765625 C 919.859375 930.160156 933 947.421875 940.539062 947.421875 C 949.320312 947.421875 937.0625 933.691406 935.117188 932.164062 C 930.1875 928.296875 926.222656 926.289062 926.222656 918.789062 C 926.222656 907.355469 939.84375 912.90625 949.097656 922.953125 C 955.519531 929.925781 956.355469 930.332031 965.453125 935.230469 C 981.964844 944.117188 1016.890625 957.421875 1016.890625 979.230469 C 1016.890625 988.242188 1010.558594 995.488281 1003.488281 997.644531 C 999.683594 998.800781 995.589844 999.882812 992.203125 1002.269531 C 989.023438 1004.515625 986.382812 1008.148438 986.082031 1012.773438 C 985.957031 1014.675781 987.476562 1023.320312 987.929688 1026.480469 C 988.679688 1031.6875 988.257812 1037.46875 988.257812 1042.855469 C 988.257812 1056.28125 987.085938 1065.683594 998.253906 1073.417969 C 1004.109375 1077.46875 1010.679688 1077.703125 1018.019531 1076.59375 C 1032.328125 1074.429688 1034.53125 1078.460938 1042.109375 1068.078125 C 1044.929688 1064.214844 1046.421875 1063.003906 1050.160156 1060.226562 C 1054.058594 1057.335938 1056.011719 1055.980469 1062.210938 1055.570312 C 1070.179688 1055.039062 1068.378906 1053.570312 1072.351562 1049.800781 C 1084.199219 1038.519531 1101.878906 1051.964844 1109.308594 1046.214844 C 1114.730469 1042.023438 1115 1036.542969 1126.601562 1036.453125 C 1139.898438 1036.355469 1138.398438 1038.742188 1146.320312 1030.730469 C 1154.738281 1022.214844 1157.511719 1020.589844 1169.578125 1020.589844 C 1181.101562 1020.589844 1195.828125 1023.855469 1195.828125 1007.066406 C 1195.828125 990.90625 1191.839844 981.003906 1179.480469 971.722656 C 1165.210938 961.003906 1150.328125 958.554688 1132.210938 958.554688 C 1103.769531 958.554688 1073.019531 990.367188 1063.011719 990.367188 C 1058.589844 990.367188 1056.648438 987.308594 1056.648438 983.210938 C 1056.648438 979.335938 1069.300781 972.652344 1072.558594 970.484375 C 1104.148438 949.421875 1125.371094 938.714844 1164.019531 949.003906 C 1190.5 956.054688 1196.710938 960.105469 1224.199219 946.359375 C 1243.179688 936.867188 1281.558594 912.867188 1301 910.230469 C 1312.269531 908.699219 1322.710938 911.382812 1334.480469 906.328125 C 1344.910156 901.851562 1343.988281 898.460938 1360.449219 894.125 C 1410.691406 880.894531 1448.828125 892.027344 1501.78125 846.976562 C 1508.898438 840.917969 1514.738281 834.890625 1521.308594 828.324219 C 1546.621094 803.007812 1568.03125 761.519531 1568.03125 723.941406 C 1568.03125 703.808594 1565.050781 681.855469 1559.390625 664.980469 C 1547.820312 630.488281 1529.53125 598.351562 1507.808594 569.429688 C 1502.46875 562.308594 1498.359375 556.128906 1488.5 556.128906 C 1474.839844 556.128906 1479.75 565.988281 1482.449219 574.121094 C 1483.820312 578.261719 1485.011719 582.640625 1485.960938 586.5 C 1488.269531 595.851562 1489.050781 603.289062 1490.550781 613.71875 C 1491.25 618.539062 1490.480469 623.421875 1491.230469 628.179688 C 1491.820312 631.929688 1491.050781 662.050781 1489.011719 664.800781 C 1488.21875 665.871094 1485.210938 667.46875 1483.730469 667.46875 Z M 1356.480469 943.445312 C 1356.480469 956.148438 1360.710938 965.015625 1363.320312 975.570312 C 1369.960938 1002.394531 1378.949219 1047.117188 1378.738281 1074.671875 C 1378.691406 1081.550781 1380.078125 1085.980469 1379.5 1092.917969 C 1379.078125 1097.949219 1378.601562 1105.535156 1378.019531 1110.523438 C 1374.589844 1140.328125 1364.351562 1171.429688 1346.390625 1193.417969 C 1336.421875 1205.636719 1325.660156 1217.238281 1314.929688 1228.765625 C 1304.109375 1240.40625 1294.511719 1253.101562 1285.851562 1266.492188 C 1275.621094 1282.324219 1268.789062 1299.972656 1258.820312 1315.808594 C 1256.859375 1318.929688 1253.039062 1324.054688 1250.519531 1326.59375 C 1235.5 1341.753906 1223.609375 1354.613281 1196.621094 1354.613281 C 1186.871094 1354.613281 1177.578125 1350.394531 1171.730469 1346.109375 C 1164.878906 1341.097656 1160.210938 1335.371094 1155.71875 1327.921875 C 1141.839844 1304.925781 1150.191406 1286.785156 1127.109375 1271.425781 C 1117.929688 1265.3125 1108.03125 1260.046875 1100.640625 1251.773438 C 1097.320312 1248.050781 1092.601562 1245.527344 1088.699219 1242.242188 C 1085.671875 1239.691406 1082.789062 1236.402344 1079.910156 1233.527344 C 1076.921875 1230.53125 1074.488281 1228.269531 1071.96875 1224.773438 C 1065.269531 1215.496094 1065.390625 1205.53125 1074.019531 1198.609375 C 1080.480469 1193.429688 1079.390625 1195.476562 1083.921875 1187.832031 C 1092.140625 1173.972656 1105.039062 1182.691406 1112.679688 1175.234375 C 1127.519531 1160.761719 1130.761719 1165.59375 1137.980469 1159.183594 C 1146.78125 1151.378906 1151.339844 1147.699219 1161.171875 1141.015625 C 1166.351562 1137.503906 1167.058594 1131.796875 1176.75 1125.574219 C 1181.75 1122.367188 1182.511719 1118.359375 1184.949219 1113.097656 C 1188.25 1105.960938 1192.859375 1101.078125 1200.28125 1097.410156 C 1206.730469 1094.21875 1208.578125 1098.347656 1216.300781 1092.753906 C 1218.691406 1091.023438 1219.859375 1089.792969 1221.960938 1088.074219 C 1231.589844 1080.207031 1234.21875 1082.027344 1242.648438 1089.878906 C 1254.429688 1100.839844 1264.71875 1096.722656 1271.921875 1082.367188 C 1285.46875 1055.386719 1273.21875 1025.8125 1253.300781 1006.0625 C 1247.011719 999.824219 1241.78125 993.167969 1237.230469 985.550781 C 1233.320312 979.003906 1229.03125 964.917969 1219.691406 964.917969 C 1215.699219 964.917969 1211.601562 968.722656 1210.148438 971.28125 C 1204.171875 981.757812 1212.238281 1003.230469 1206.878906 1019.710938 C 1205.828125 1022.953125 1203.78125 1026.097656 1203.78125 1030.132812 C 1203.78125 1043.644531 1211.671875 1051.96875 1201.238281 1061.785156 C 1197.089844 1065.6875 1193.089844 1065.070312 1188.890625 1070.121094 C 1180.320312 1080.4375 1177.609375 1083.144531 1162.988281 1085.566406 C 1151.320312 1087.5 1144.859375 1094.054688 1134.878906 1098.820312 C 1127.621094 1102.289062 1125.5 1100.117188 1117.089844 1100.117188 C 1111 1100.117188 1109.351562 1101.972656 1104.679688 1103.613281 C 1102.398438 1104.414062 1100.46875 1105.03125 1098.589844 1105.46875 C 1086.109375 1108.367188 1078.070312 1120.121094 1065.191406 1122.175781 C 1061.78125 1122.722656 1060.539062 1122.1875 1057.800781 1123.53125 C 1049.101562 1127.804688 1038.808594 1138.292969 1020.859375 1138.292969 C 990.605469 1138.292969 972.351562 1101.230469 972.351562 1073.871094 C 972.351562 1068.085938 972.972656 1060.070312 973.691406 1055.332031 C 978.929688 1020.917969 970.84375 998.800781 946.304688 974.261719 C 932.671875 960.628906 906.339844 941.8125 906.339844 920.378906 C 906.339844 909.464844 914.269531 898.496094 918.898438 891.582031 C 928.890625 876.652344 944.1875 860.617188 922.015625 841.875 C 918.902344 839.242188 915.746094 837.171875 912.589844 834.601562 C 909.246094 831.875 906.441406 829.429688 903.359375 826.335938 C 890.179688 813.117188 880.890625 799.648438 880.890625 778.816406 C 880.890625 750.039062 894.566406 723.671875 904.738281 700.867188 C 911.171875 686.449219 918.21875 672.828125 924.066406 658.160156 C 928.011719 648.261719 931.445312 638.640625 935.070312 628.609375 C 947.234375 594.96875 938.496094 608.300781 957.765625 569.378906 C 967.597656 549.53125 981.976562 532.421875 997.21875 516.578125 C 999.285156 514.441406 999.832031 513.140625 1001.949219 510.980469 C 1004.148438 508.730469 1005.320312 508.171875 1007.539062 506.21875 L 1023.5 491.960938 C 1035.210938 482.488281 1047.261719 474.078125 1060.890625 467.320312 C 1070.339844 462.640625 1078.820312 458.601562 1088.488281 454.359375 C 1115.851562 442.359375 1157 430.480469 1187.878906 430.480469 L 1245.820312 432.179688 C 1279.390625 435.851562 1301.511719 437.308594 1335.480469 445.910156 C 1340.371094 447.140625 1344.160156 447.890625 1348.859375 449.230469 C 1373.320312 456.191406 1390.46875 457.609375 1414 470.78125 C 1434.539062 482.28125 1442.011719 483.769531 1461.648438 501.058594 L 1504.96875 544.441406 L 1523.5 568.851562 C 1528.320312 575.679688 1533.121094 582.289062 1537.558594 589.78125 C 1557.578125 623.570312 1570.410156 648.148438 1578.300781 687.421875 C 1585.101562 721.238281 1579.851562 757.765625 1564.859375 788.371094 C 1558.191406 801.996094 1548.28125 819.570312 1537.621094 830.328125 C 1536.03125 831.941406 1534.761719 833.023438 1533.230469 834.675781 L 1511.390625 855.785156 C 1455.640625 904.367188 1405.550781 895.34375 1385.539062 903.3125 C 1367.96875 910.308594 1356.480469 922.492188 1356.480469 943.445312 "/>
<path fill-rule="evenodd" fill="rgb(99.609375%, 99.609375%, 99.609375%)" fill-opacity="1" d="M 1136.980469 823.355469 C 1136.980469 860.695312 1094.808594 883.796875 1060.628906 883.796875 C 1033.46875 883.796875 1015.910156 865.9375 1005.710938 848.851562 C 1001.710938 842.164062 997.632812 833.871094 994.910156 826.242188 C 988.628906 808.640625 989.96875 803.015625 986.007812 790.609375 C 982.855469 780.753906 971.105469 786.996094 968.945312 788.933594 C 965.628906 791.902344 965.179688 794.722656 959.625 794.722656 C 957.691406 794.722656 945.117188 789.378906 966.773438 774.035156 C 1007.511719 745.183594 1136.980469 749.84375 1136.980469 823.355469 "/>
<path fill-rule="evenodd" fill="rgb(99.609375%, 99.609375%, 99.609375%)" fill-opacity="1" d="M 1218.890625 748.59375 C 1218.890625 751.757812 1211.511719 769.074219 1210.039062 773.148438 C 1203.320312 791.84375 1200.539062 798.832031 1206.058594 817.101562 C 1208.738281 826 1217.328125 833.867188 1225.929688 836.992188 C 1239.769531 842.023438 1258.28125 837.261719 1275.898438 846.675781 C 1280.761719 849.273438 1292.078125 855.503906 1290.828125 861.09375 C 1290 864.804688 1287.378906 866.300781 1284.109375 866.300781 C 1276.460938 866.300781 1273.671875 854.371094 1252.300781 854.371094 C 1245.730469 854.371094 1237.050781 858.3125 1231.621094 859.9375 C 1219.320312 863.617188 1200.179688 870.484375 1189.25 860.949219 C 1172.019531 845.910156 1187.929688 797.984375 1194.128906 779.503906 C 1197.210938 770.335938 1200.011719 762.722656 1203.449219 753.828125 C 1205.058594 749.648438 1205.871094 743.929688 1209.441406 742.246094 C 1213.980469 740.105469 1218.890625 743.871094 1218.890625 748.59375 "/>
<path fill-rule="evenodd" fill="rgb(99.609375%, 99.609375%, 99.609375%)" fill-opacity="1" d="M 1209.351562 1290.988281 C 1219.371094 1290.988281 1233.320312 1271.105469 1238.78125 1271.105469 C 1243.589844 1271.105469 1249.808594 1277.710938 1239.769531 1286.414062 C 1238.050781 1287.902344 1237.519531 1288 1235.789062 1289.601562 C 1223.820312 1300.734375 1219.800781 1303.714844 1206.171875 1303.714844 C 1199.011719 1303.714844 1190.25 1299.199219 1186.160156 1295.890625 C 1179.71875 1290.6875 1177.351562 1287.574219 1172.148438 1281.265625 C 1163.441406 1270.707031 1163.230469 1264.808594 1150.011719 1254.101562 C 1143.570312 1248.890625 1150.191406 1242.476562 1153.679688 1242.476562 C 1169.699219 1242.476562 1183.28125 1290.988281 1209.351562 1290.988281 "/>
<path fill-rule="nonzero" fill="rgb(99.609375%, 99.609375%, 99.609375%)" fill-opacity="1" d="M 1134.160156 671.191406 C 1131.011719 673 1124.941406 673.660156 1123.128906 670.511719 C 1121.308594 667.351562 1124.441406 661.578125 1127.589844 659.769531 L 1140.441406 652.371094 C 1143.601562 650.558594 1150.910156 649.75 1152.71875 652.910156 C 1154.539062 656.058594 1150.171875 661.980469 1147.011719 663.800781 Z M 1116.039062 599.261719 C 1112.460938 598.621094 1107.390625 595.230469 1108.03125 591.640625 C 1108.671875 588.058594 1114.769531 585.648438 1118.351562 586.28125 L 1132.949219 588.878906 C 1136.53125 589.519531 1142.648438 593.601562 1142.011719 597.191406 C 1141.378906 600.769531 1134.21875 602.488281 1130.640625 601.859375 Z M 1148.398438 532.511719 C 1146.070312 529.71875 1144.371094 523.859375 1147.160156 521.519531 C 1149.949219 519.191406 1156.171875 521.261719 1158.511719 524.050781 L 1168.019531 535.429688 C 1170.359375 538.21875 1172.421875 545.28125 1169.628906 547.609375 C 1166.839844 549.949219 1160.25 546.671875 1157.910156 543.878906 Z M 1216.089844 502.179688 C 1216.101562 498.539062 1218.558594 492.960938 1222.199219 492.960938 C 1225.839844 492.96875 1229.28125 498.558594 1229.269531 502.199219 L 1229.25 517.019531 C 1229.238281 520.660156 1226.28125 527.398438 1222.640625 527.390625 C 1219.011719 527.390625 1216.070312 520.640625 1216.070312 517 Z M 1287.449219 522.449219 C 1289.789062 519.671875 1295.269531 516.96875 1298.050781 519.320312 C 1300.828125 521.660156 1299.871094 528.148438 1297.53125 530.941406 L 1287.980469 542.28125 C 1285.640625 545.058594 1279.039062 548.320312 1276.261719 545.980469 C 1273.46875 543.628906 1275.558594 536.578125 1277.898438 533.789062 Z M 1329.070312 583.851562 C 1332.660156 583.21875 1338.578125 584.679688 1339.210938 588.261719 C 1339.839844 591.851562 1334.929688 596.199219 1331.339844 596.828125 L 1316.738281 599.378906 C 1313.148438 600.011719 1306.011719 598.261719 1305.378906 594.679688 C 1304.75 591.089844 1310.878906 587.03125 1314.46875 586.398438 Z M 1321.5 657.640625 C 1324.648438 659.460938 1328.25 664.390625 1326.429688 667.53125 C 1324.601562 670.679688 1318.039062 670.859375 1314.890625 669.039062 L 1302.058594 661.609375 C 1298.910156 659.78125 1294.558594 653.851562 1296.390625 650.699219 C 1298.210938 647.550781 1305.519531 648.378906 1308.671875 650.199219 Z M 1268.261719 709.292969 C 1269.5 712.714844 1269.101562 718.804688 1265.679688 720.042969 C 1262.25 721.28125 1257.109375 717.203125 1255.871094 713.78125 L 1250.820312 699.84375 C 1249.578125 696.421875 1250.058594 689.078125 1253.480469 687.839844 C 1256.898438 686.601562 1261.96875 691.933594 1263.210938 695.355469 Z M 1194.28125 714.644531 C 1193.03125 718.0625 1188.800781 722.464844 1185.390625 721.214844 C 1181.96875 719.96875 1180.648438 713.539062 1181.898438 710.121094 L 1186.988281 696.195312 C 1188.238281 692.777344 1193.328125 687.460938 1196.75 688.710938 C 1200.160156 689.960938 1200.621094 697.304688 1199.371094 700.722656 Z M 1198.488281 680.820312 C 1179.871094 674.011719 1165.761719 660.289062 1158.019531 643.621094 C 1150.28125 626.949219 1148.890625 607.328125 1155.699219 588.699219 C 1162.511719 570.070312 1176.230469 555.96875 1192.898438 548.230469 C 1209.570312 540.480469 1229.199219 539.101562 1247.820312 545.910156 C 1266.449219 552.71875 1280.550781 566.441406 1288.300781 583.109375 C 1296.039062 599.78125 1297.429688 619.398438 1290.609375 638.03125 C 1283.800781 656.660156 1270.089844 670.761719 1253.421875 678.511719 C 1236.75 686.246094 1217.121094 687.632812 1198.488281 680.820312 Z M 1169.96875 638.070312 C 1176.289062 651.679688 1187.808594 662.878906 1203.019531 668.441406 C 1218.230469 674.011719 1234.25 672.878906 1247.859375 666.550781 C 1261.480469 660.230469 1272.679688 648.71875 1278.238281 633.511719 C 1283.800781 618.300781 1282.671875 602.269531 1276.351562 588.660156 C 1270.019531 575.050781 1258.511719 563.851562 1243.300781 558.289062 C 1228.089844 552.730469 1212.058594 553.859375 1198.449219 560.179688 C 1184.839844 566.5 1173.640625 578.019531 1168.078125 593.230469 C 1162.519531 608.441406 1163.648438 624.460938 1169.96875 638.070312 "/>
<path fill-rule="nonzero" fill="rgb(99.609375%, 99.609375%, 99.609375%)" fill-opacity="1" d="M 869.566406 646.558594 C 872.789062 648.21875 876.867188 653.570312 875.207031 656.800781 C 873.546875 660.019531 866.78125 659.898438 863.554688 658.238281 C 863.203125 658.058594 862.738281 657.808594 862.164062 657.5 C 860.972656 656.859375 861.015625 656.898438 860.769531 656.761719 C 841.757812 646.019531 828.902344 628.578125 823.484375 609.089844 C 818.070312 589.589844 820.089844 568.019531 830.832031 549.011719 C 833.121094 544.578125 835.769531 540.558594 838.714844 536.929688 C 851.679688 520.929688 853.066406 512.011719 846.21875 502.921875 C 844.679688 501.078125 843.222656 499.160156 841.851562 497.179688 C 829.441406 479.21875 825.488281 457.921875 829.125 438 C 832.761719 418.101562 843.980469 399.589844 861.921875 387.191406 C 879.878906 374.78125 901.175781 370.828125 921.097656 374.460938 C 931.054688 376.28125 940.664062 380 949.335938 385.511719 C 956.535156 390.410156 965.136719 392.941406 974.742188 382.320312 C 980.421875 375.101562 987.289062 368.949219 994.984375 364.128906 C 1012.128906 353.398438 1033.378906 349.210938 1054.679688 354.101562 C 1064.890625 356.449219 1074.441406 360.78125 1082.808594 366.75 C 1091.199219 372.71875 1098.421875 380.339844 1103.988281 389.261719 C 1105.910156 392.328125 1107.890625 399.921875 1104.820312 401.839844 C 1101.738281 403.761719 1094.769531 399.28125 1092.851562 396.210938 C 1088.21875 388.800781 1082.210938 382.460938 1075.21875 377.480469 C 1068.21875 372.488281 1060.25 368.871094 1051.710938 366.910156 L 1051.699219 366.910156 C 1033.988281 362.839844 1016.28125 366.339844 1001.980469 375.300781 C 987.679688 384.261719 976.796875 398.671875 972.71875 416.398438 C 971.425781 422.03125 970.886719 427.789062 971.089844 433.53125 C 971.296875 439.25 972.253906 444.960938 973.949219 450.488281 C 975.007812 453.96875 973.65625 460.25 970.1875 461.308594 C 966.714844 462.371094 962.4375 457.800781 961.378906 454.328125 C 959.34375 447.699219 958.199219 440.859375 957.953125 433.96875 C 957.105469 410.390625 960.328125 408.480469 940.632812 395.589844 C 934.011719 391.25 926.394531 388.769531 918.710938 387.371094 C 902.136719 384.339844 884.394531 387.640625 869.417969 397.988281 C 854.429688 408.351562 845.058594 423.800781 842.027344 440.390625 C 839 456.960938 842.304688 474.710938 852.652344 489.679688 C 855.9375 494.441406 859.828125 498.71875 864.203125 502.441406 C 870.914062 508.929688 877.71875 510.21875 894.058594 509.039062 C 909.046875 507.960938 924.511719 511.128906 938.578125 519.078125 C 941.746094 520.871094 945.8125 526.371094 944.019531 529.539062 C 942.230469 532.699219 935.261719 532.339844 932.09375 530.550781 C 916.25 521.601562 898.28125 519.921875 882.03125 524.429688 C 865.785156 528.941406 851.257812 539.660156 842.304688 555.5 C 833.351562 571.339844 831.667969 589.308594 836.183594 605.558594 C 840.695312 621.808594 851.410156 636.328125 867.253906 645.289062 C 868.339844 645.898438 868.058594 645.761719 868.398438 645.949219 C 868.667969 646.089844 869.058594 646.300781 869.566406 646.558594 "/>
<path fill-rule="nonzero" fill="rgb(99.609375%, 99.609375%, 99.609375%)" fill-opacity="1" d="M 1599.308594 585.898438 C 1596.519531 588.230469 1593.71875 594.351562 1596.039062 597.128906 C 1598.371094 599.921875 1604.941406 598.308594 1607.730469 595.988281 C 1608.03125 595.730469 1608.429688 595.390625 1608.929688 594.960938 C 1609.941406 594.078125 1609.910156 594.121094 1610.121094 593.929688 C 1626.320312 579.289062 1635.039062 559.460938 1636.058594 539.25 C 1637.078125 519.039062 1630.378906 498.441406 1615.738281 482.25 C 1612.53125 478.421875 1609.070312 475.078125 1605.398438 472.191406 C 1589.25 459.410156 1585.941406 451.011719 1590.628906 440.640625 C 1591.730469 438.511719 1592.730469 436.320312 1593.628906 434.078125 C 1601.808594 413.839844 1601.011719 392.199219 1593.089844 373.558594 C 1585.191406 354.929688 1570.191406 339.328125 1549.96875 331.160156 C 1529.730469 322.980469 1508.078125 323.789062 1489.441406 331.699219 C 1480.121094 335.660156 1471.558594 341.390625 1464.308594 348.660156 C 1458.359375 355.019531 1450.519531 359.371094 1438.820312 351.121094 C 1431.699219 345.308594 1423.648438 340.820312 1415.078125 337.800781 C 1396.011719 331.078125 1374.359375 331.640625 1354.640625 341.078125 C 1345.191406 345.609375 1336.828125 351.929688 1329.960938 359.589844 C 1323.089844 367.25 1317.710938 376.269531 1314.21875 386.179688 C 1313.019531 389.609375 1312.75 397.449219 1316.179688 398.640625 C 1319.601562 399.839844 1325.421875 393.949219 1326.609375 390.519531 C 1329.511719 382.28125 1333.988281 374.78125 1339.71875 368.390625 C 1345.460938 361.988281 1352.441406 356.710938 1360.351562 352.929688 L 1360.351562 352.921875 C 1376.738281 345.070312 1394.789062 344.621094 1410.699219 350.230469 C 1426.621094 355.839844 1440.390625 367.511719 1448.25 383.921875 L 1448.261719 383.929688 C 1450.75 389.128906 1452.539062 394.628906 1453.601562 400.28125 C 1454.648438 405.910156 1454.960938 411.679688 1454.519531 417.460938 C 1454.25 421.078125 1456.941406 426.910156 1460.558594 427.191406 C 1464.179688 427.460938 1467.351562 422.058594 1467.628906 418.449219 C 1468.160156 411.53125 1467.78125 404.601562 1466.511719 397.828125 C 1462.171875 374.640625 1458.609375 373.480469 1475 356.589844 C 1480.519531 350.910156 1487.398438 346.820312 1494.589844 343.769531 C 1510.109375 337.179688 1528.140625 336.519531 1545.019531 343.339844 C 1561.910156 350.171875 1574.441406 363.179688 1581.03125 378.710938 C 1587.609375 394.21875 1588.269531 412.25 1581.460938 429.128906 C 1579.289062 434.488281 1576.429688 439.53125 1572.980469 444.109375 C 1567.851562 451.910156 1561.488281 454.660156 1545.289062 457.089844 C 1530.429688 459.308594 1516.039062 465.800781 1504.050781 476.628906 C 1501.351562 479.070312 1498.589844 485.328125 1501.03125 488.03125 C 1503.46875 490.730469 1510.191406 488.851562 1512.890625 486.410156 C 1526.390625 474.199219 1543.558594 468.621094 1560.398438 469.46875 C 1577.238281 470.320312 1593.761719 477.589844 1605.960938 491.089844 C 1618.171875 504.578125 1623.75 521.75 1622.898438 538.589844 C 1622.050781 555.429688 1614.78125 571.949219 1601.28125 584.160156 C 1600.359375 585 1600.601562 584.800781 1600.308594 585.050781 C 1600.078125 585.25 1599.738281 585.539062 1599.308594 585.898438 "/>
</svg>
